# xmcd
# Track frame offsets:
# 150
# 14120
# 30672
# 51430
# 66470
# 89662
# 109637
# 122820
# 142612
# 163417
# 189102
# 208080
#
# Disc length: 2958 seconds
# Revision: 0
# Processed by: cddbd v1.4PL0 Copyright (c) Steve Scherf et al.
# Submitted via: VisiTrax 2.9.5.180 - For more info visit www.synapsa.com
#
DISCID=b00b8c0c
DTITLE=Roland - Waltz
DYEAR=1900
DGENRE=Blues
TTITLE0=Moonlight gambler
TTITLE1=Cool water
TTITLE2=Northern Sky
TTITLE3=Down along the cove
TTITLE4=Moonlight lady
TTITLE5=Amanda
TTITLE6=Dreaming my dreams with you
TTITLE7=Brand new tennessee Waltz
TTITLE8=Betcha goodnight
TTITLE9=Ballad of Jean Harlow
TTITLE10=Hash bamboo shuffle
TTITLE11=Plastic Jesus
EXTD=
EXTT0=
EXTT1=
EXTT2=
EXTT3=
EXTT4=
EXTT5=
EXTT6=
EXTT7=
EXTT8=
EXTT9=
EXTT10=
EXTT11=
PLAYORDER=
